<svg width="156" height="99" viewBox="0 0 156 99" fill="none" xmlns="http://www.w3.org/2000/svg">
<path d="M39.4025 21.2658C39.882 18.5464 42.4753 16.7305 45.1948 17.21L137.899 33.5564C140.619 34.0359 142.435 36.6292 141.955 39.3487L134.171 83.4933C133.692 86.2128 131.099 88.0287 128.379 87.5491L35.6744 71.2028C32.9549 70.7233 31.1391 68.13 31.6186 65.4105L39.4025 21.2658Z" fill="#DD0000"/>
<path d="M10.6741 42.9978C8.81193 40.6494 9.41986 37.2017 11.9729 35.6319L40.2997 18.2143C43.9731 15.9556 48.5915 19.0951 47.8427 23.3418L40.1772 66.8148C39.4284 71.0616 34.0148 72.4321 31.3354 69.0532L10.6741 42.9978Z" fill="#DD0000"/>
<ellipse cx="37.5947" cy="44.041" rx="10.5366" ry="9.90826" transform="rotate(10 37.5947 44.041)" fill="#FAF9F6"/>
<path d="M70.9607 58.4851L73.3445 44.9657L69.8078 46.3648L70.4329 42.8195L73.9613 41.4676L77.2466 42.0469L74.246 59.0644L70.9607 58.4851ZM81.371 60.6863C80.5123 60.5349 79.736 60.2152 79.0422 59.7273C78.3562 59.2408 77.797 58.6345 77.3645 57.9084C76.9321 57.1822 76.6713 56.3808 76.5822 55.504L79.8243 55.2227C79.8558 55.6426 79.9759 56.0212 80.1845 56.3585C80.401 56.6972 80.6679 56.9799 80.9854 57.2065C81.3122 57.4265 81.6607 57.5692 82.031 57.6345C82.5194 57.7207 82.9854 57.681 83.4289 57.5155C83.8802 57.3513 84.2595 57.0892 84.5667 56.7291C84.8818 56.3704 85.0824 55.9468 85.1685 55.4583C85.2547 54.9698 85.211 54.5032 85.0377 54.0583C84.8722 53.6148 84.6054 53.2388 84.2374 52.9302C83.8773 52.623 83.453 52.4263 82.9645 52.3402C82.3657 52.2346 81.8592 52.2509 81.4449 52.3891C81.032 52.5194 80.7151 52.6584 80.494 52.8063L77.9218 51.4998L80.038 42.5391L89.3267 44.177L88.7974 47.1787L81.2814 45.8534L82.6034 44.9898L81.2195 50.7653L80.7926 50.0076C81.2791 49.736 81.8081 49.5693 82.3795 49.5076C82.9509 49.4459 83.473 49.4567 83.9457 49.54C85.0171 49.729 85.9162 50.1353 86.643 50.7589C87.379 51.3761 87.9018 52.1426 88.2115 53.0582C88.5305 53.9674 88.5955 54.9578 88.4066 56.0293C88.2177 57.1007 87.7671 58.0205 87.0549 58.7885C86.3441 59.5486 85.4866 60.1041 84.4824 60.4551C83.4796 60.7981 82.4425 60.8752 81.371 60.6863ZM94.1783 62.9445C92.9177 62.7223 91.8613 62.2639 91.0089 61.5693C90.1566 60.8747 89.5498 60.0082 89.1887 58.9697C88.8275 57.9312 88.7581 56.7817 88.9804 55.5212L89.8805 50.4159C90.1028 49.1554 90.5612 48.0989 91.2558 47.2466C91.9503 46.3942 92.8169 45.7875 93.8554 45.4263C94.8939 45.0652 96.0434 44.9957 97.3039 45.218C98.5645 45.4403 99.6209 45.8987 100.473 46.5933C101.326 47.2878 101.932 48.1543 102.294 49.1928C102.655 50.2313 102.724 51.3808 102.502 52.6414L101.602 57.7466C101.379 59.0072 100.921 60.0636 100.226 60.916C99.5318 61.7683 98.6653 62.3751 97.6268 62.7362C96.5883 63.0974 95.4388 63.1668 94.1783 62.9445ZM94.7159 59.8956C95.2831 59.9956 95.8188 59.952 96.323 59.7647C96.8272 59.5774 97.2535 59.2789 97.602 58.8692C97.9504 58.4594 98.1746 57.971 98.2747 57.4037L99.2624 51.8021C99.3624 51.2349 99.3187 50.6991 99.1315 50.195C98.9442 49.6908 98.6457 49.2645 98.2359 48.916C97.8262 48.5676 97.3377 48.3434 96.7705 48.2433C96.2032 48.1433 95.6675 48.187 95.1633 48.3742C94.6591 48.5615 94.2328 48.8601 93.8844 49.2698C93.536 49.6795 93.3117 50.168 93.2117 50.7352L92.224 56.3368C92.124 56.9041 92.1676 57.4398 92.3549 57.944C92.5422 58.4481 92.8407 58.8745 93.2504 59.2229C93.6601 59.5713 94.1486 59.7956 94.7159 59.8956ZM113.016 66.2662C111.338 65.9703 109.954 65.3405 108.865 64.3767C107.777 63.405 107.012 62.1937 106.569 60.7428C106.127 59.2919 106.039 57.6924 106.307 55.9443C106.66 54.1707 107.292 52.6818 108.203 51.4777C109.115 50.2657 110.247 49.4011 111.597 48.8837C112.949 48.3584 114.464 48.2438 116.142 48.5396C116.985 48.6883 117.774 48.937 118.508 49.2859C119.251 49.6361 119.915 50.0823 120.502 50.6245L118.334 52.9716C117.986 52.5935 117.573 52.2851 117.095 52.0465C116.627 51.8014 116.133 51.633 115.613 51.5413C114.525 51.3496 113.58 51.4387 112.775 51.8087C111.98 52.1721 111.323 52.7631 110.805 53.5816C110.295 54.4014 109.93 55.389 109.71 56.5444C109.519 57.7211 109.527 58.7826 109.734 59.7288C109.948 60.6765 110.371 61.4578 111.002 62.0727C111.634 62.6797 112.483 63.0691 113.55 63.2409C114.641 63.4576 115.662 63.3291 116.615 62.8553L117.831 65.7747C117.085 66.09 116.299 66.2845 115.474 66.3583C114.655 66.4414 113.836 66.4107 113.016 66.2662ZM103.845 58.8489L104.282 56.3672L115.627 58.3676L115.19 60.8493L103.845 58.8489ZM104.545 54.8782L104.983 52.3965L116.328 54.3969L115.89 56.8786L104.545 54.8782ZM121.586 58.7603L119.585 56.7015L121.684 55.0246L119.201 53.9043L120.55 51.3641L122.821 52.8611L123.083 50.1292L125.92 50.6293L125.232 53.2862L127.877 52.656L128.277 55.5047L125.56 55.708L126.959 58.0018L124.375 59.252L123.376 56.7608L121.586 58.7603Z" fill="#FAF9F6"/>
</svg>
